<?xml version="1.0"?>
<svg xmlns="http://www.w3.org/2000/svg" id="fff7b4cd-9cd3-4430-babc-1d67d0ea0322" data-name="Livello 1" viewBox="0 0 100 100">
  <path d="M49.7,39.2,33.4,55.5H23.3a8.07,8.07,0,0,0-8.1,8.1V82.8H38.5v-18L48,50.7a18,18,0,0,0,3-9.8V39.7A.76.76,0,0,0,49.7,39.2Z" style="fill:#ff4758"/>
  <path d="M51.9,25.8V17.2a.9.9,0,0,0-1.8,0v8.6a.9.9,0,0,0,1.8,0Z" style="fill:#1a1a1a"/>
  <path d="M42.4,28.5,38.9,25a.9.9,0,0,0-1.5.6.71.71,0,0,0,.3.6l3.5,3.5a.91.91,0,0,0,1.2,0,.86.86,0,0,0,.3-.6Z" style="fill:#1a1a1a"/>
  <path d="M60.7,30l3.7-3.7a.91.91,0,0,0,0-1.2.86.86,0,0,0-.6-.3.71.71,0,0,0-.6.3l-3.7,3.7a.86.86,0,0,0-.3.6.71.71,0,0,0,.3.6A.91.91,0,0,0,60.7,30Z" style="fill:#1a1a1a"/>
  <path d="M78.7,54.6H76.4l.7-.9a6.77,6.77,0,0,0,1.4-4.1v-2a6.8,6.8,0,1,0-13.6,0v3L53,38.7a1.73,1.73,0,0,0-1.7-.4l-.2.1-.2-.1a1.53,1.53,0,0,0-1.7.4L37.3,50.6v-3a6.8,6.8,0,1,0-13.6,0v2a6.77,6.77,0,0,0,1.4,4.1l.7.9H23.5a8.92,8.92,0,0,0-8.9,8.9V82.7a.9.9,0,0,0,.9.9H38.9a.9.9,0,0,0,.9-.9V66.6a.9.9,0,1,0-1.8,0V82H23.5V64.8a.9.9,0,0,0-1.8,0V82H16.5V63.6a7.17,7.17,0,0,1,7.2-7.2H33.8a.71.71,0,0,0,.6-.3L50.5,40v1.5a16.92,16.92,0,0,1-2.8,8.7L38.2,64.3a.76.76,0,0,0-.2.5v1.6a.9.9,0,0,0,1.8,0V65.1l9.4-13.9A14.09,14.09,0,0,0,50.9,48l.5-1.3.5,1.3a32.39,32.39,0,0,0,1.7,3.2L63,65.1V82.8a.9.9,0,0,0,.9.9H86.41a.9.9,0,0,0,.9-.9V63.6C87.31,58.62,84.06,54.6,78.7,54.6Zm-43.3-5a5.1,5.1,0,1,1-10.2,0v-2a5.1,5.1,0,1,1,10.2,0Zm31.2-2.1a5.1,5.1,0,1,1,10.2,0v2a5.1,5.1,0,1,1-10.2,0ZM85.9,82.29H80.7V70.6a.9.9,0,1,0-1.8,0V82.29H64.4V64.8c0-.2-.1-.3-.2-.5L54.7,50.2a16.92,16.92,0,0,1-2.8-8.7V40L68,56.1a.86.86,0,0,0,.6.3H78.7a7.17,7.17,0,0,1,7.2,7.2V82.29Z" style="fill:#1a1a1a"/>
</svg>
