<?xml version="1.0"?>
<svg xmlns="http://www.w3.org/2000/svg" id="aee03cdc-791d-4699-9450-65b9036da007" data-name="Livello 1" viewBox="0 0 100 100">
  <path d="M78,58.71a.89.89,0,0,0,.88-.88V27a3.47,3.47,0,0,0-3.47-3.46H69.13V21.21a4.12,4.12,0,0,0-8.23,0v2.37H53.59V21.21a4.12,4.12,0,0,0-8.23,0v2.37H38V21.21a4.12,4.12,0,0,0-8.23,0v2.37H23.57A3.47,3.47,0,0,0,20.1,27V73.93a3.48,3.48,0,0,0,3.47,3.47h43a.88.88,0,0,0,0-1.75h-43a1.72,1.72,0,0,1-1.72-1.72V35.69H77.09V57.83A.89.89,0,0,0,78,58.71ZM62.66,21.21a2.36,2.36,0,1,1,4.72,0v2.37H62.66Zm-15.55,0a2.36,2.36,0,0,1,4.72,0v2.37H47.11Zm-15.54,0a2.36,2.36,0,0,1,4.72,0v2.37H31.57ZM21.85,33.94V27a1.72,1.72,0,0,1,1.72-1.71h6.24V26.4a4.12,4.12,0,0,0,4.12,4.11.88.88,0,1,0,0-1.75,2.36,2.36,0,0,1-2.36-2.36V25.33H45.36V26.4a4.12,4.12,0,0,0,4.11,4.11.88.88,0,1,0,0-1.75,2.36,2.36,0,0,1-2.36-2.36V25.33H60.9V26.4A4.12,4.12,0,0,0,65,30.51a.88.88,0,0,0,0-1.75,2.36,2.36,0,0,1-2.36-2.36V25.33H75.38A1.72,1.72,0,0,1,77.09,27v6.9Z" style="fill:#1a1a1a"/>
  <path d="M66.31,47.9h5.18a.88.88,0,0,0,0-1.76H66.31V41.29a.88.88,0,1,0-1.75,0v4.85H58.33V41.29a.88.88,0,1,0-1.75,0v4.85H50.35V41.29a.88.88,0,1,0-1.75,0v4.85H42.37V41.29a.88.88,0,0,0-1.76,0v4.85H34.39V41.29a.88.88,0,1,0-1.76,0v4.85H27.45a.88.88,0,0,0,0,1.76h5.18v6.89H27.45a.88.88,0,0,0,0,1.76h5.18v6.89H27.45a.88.88,0,0,0,0,1.76h5.18v4.85a.88.88,0,0,0,1.76,0V65.2h6.22v4.85a.88.88,0,0,0,1.76,0V65.2H48.6v4.85a.88.88,0,0,0,1.75,0V65.2h5.76a.88.88,0,0,0,0-1.76H50.35V56.55h6.23V57.6a.88.88,0,0,0,1.75,0V56.55h.87a.88.88,0,0,0,0-1.76h-.87V47.9h6.23v3.2a.88.88,0,1,0,1.75,0ZM40.61,63.44H34.39V56.55h6.22Zm0-8.65H34.39V47.9h6.22Zm8,8.65H42.37V56.55H48.6Zm0-8.65H42.37V47.9H48.6Zm8,0H50.35V47.9h6.23Z" style="fill:#1a1a1a"/>
  <path d="M66.89,54.5a6.37,6.37,0,0,1-6.37,6.37C60.52,70.62,62.15,80,73.26,83,84.37,80,86,70.62,86,60.87a6.37,6.37,0,0,1-6.37-6.37Z" style="fill:#ff4758;fill-rule:evenodd"/>
  <path d="M72,72.64a1.29,1.29,0,0,1-.91-.38l-2.59-2.59a1.29,1.29,0,1,1,1.83-1.83L72,69.51l4.27-4.26a1.29,1.29,0,1,1,1.83,1.83l-5.18,5.18a1.31,1.31,0,0,1-.92.38Z" style="fill:#fff"/>
</svg>
