<?xml version="1.0" encoding="utf-8"?>
<!-- Generator: Adobe Illustrator 23.0.2, SVG Export Plug-In . SVG Version: 6.00 Build 0)  -->
<svg version="1.1" id="Livello_1" xmlns="http://www.w3.org/2000/svg" xmlns:xlink="http://www.w3.org/1999/xlink" x="0px" y="0px"
	 viewBox="0 0 90 90" style="enable-background:new 0 0 90 90;" xml:space="preserve">
<style type="text/css">
	.st0{fill:#FF4758;}
	.st1{fill:#231F20;}
	.st2{fill:#231F20;stroke:#FFFFFF;stroke-miterlimit:10;}
	.st3{fill:#231F20;stroke:#FFFFFF;stroke-width:0.8;stroke-miterlimit:10;}
</style>
<g>
	<g>
		<polygon class="st0" points="21.3,33.7 27.6,30.7 27.7,30.8 52.2,44 46.5,46.6 43.9,47.8 41.4,49 41.2,48.8 		"/>
		<path class="st1" d="M7.5,53.5c0,0.3,0.1,0.7,0.4,0.9l11.9,9c1,0.8,2.2,1.2,3.5,1.2c0.8,0,1.7-0.2,2.4-0.5l6.1-2.8l48.6-23.2
			c1.3-0.6,2.4-1.6,2.9-2.8c0.6-1.3,0.6-2.7,0-4l-0.4-0.9c-0.8-1.6-2.1-2.8-3.8-3.4c-3-1.1-7.1-0.4-11.9,1.9l0,0L47.5,39.3l-0.3-0.2
			l-18.5-10c-0.3-0.1-0.6-0.1-0.9,0L19.7,33c-0.3,0.1-0.5,0.4-0.5,0.8c0,0.3,0.1,0.7,0.4,0.9l15.3,11.7l-13.6,7.5l-0.1-0.1l-6.7-3.6
			C14.3,50.1,14.2,50,14,50c-0.1,0-0.3,0-0.4,0.1L8,52.7C7.7,52.9,7.5,53.2,7.5,53.5z M22,34.1l6.3-2.9l0.2,0.1l23.1,12.5l-5.8,2.7
			l-5.7-4.2c-0.2-0.1-0.5-0.2-0.7-0.2c-0.3,0-0.5,0.2-0.6,0.4c-0.2,0.2-0.2,0.5-0.2,0.7c0,0.3,0.2,0.5,0.4,0.6l4.8,3.6L41,48.6
			l-0.3-0.2L22,34.1z M14,52.1l6.9,3.7c0.3,0.2,0.6,0.2,0.9,0l14.8-8.2l3.8,2.9c0.3,0.2,0.7,0.3,1,0.1l12.8-5.9
			c0.3-0.2,0.5-0.5,0.5-0.8c0-0.4-0.2-0.7-0.5-0.9l-4.6-2.5l18.3-10.1c4.1-2,7.7-2.6,10.1-1.9l1.5,0.4l-7.1,3.5
			c-0.2,0.1-0.4,0.3-0.5,0.6c-0.1,0.2-0.1,0.5,0.1,0.7c0.1,0.2,0.3,0.4,0.6,0.5c0.2,0.1,0.5,0.1,0.7,0l7.5-3.8l0.8,1.6
			c0.9,2-0.5,3.6-2,4.3L30.9,59.4l-6.1,2.8c-0.5,0.2-1.1,0.4-1.6,0.4c-0.8,0-1.6-0.3-2.3-0.8l-10.6-8.1L14,52.1z"/>
	</g>
	<path class="st2" d="M27.9,69.1H9.6c-0.8,0-1.5,0.7-1.5,1.5c0,0.8,0.7,1.5,1.5,1.5h18.2c0.8,0,1.5-0.7,1.5-1.5
		C29.4,69.8,28.7,69.1,27.9,69.1z"/>
	<path class="st3" d="M19.9,74.8h-2.2c-0.8,0-1.5,0.7-1.5,1.5c0,0.8,0.7,1.5,1.5,1.5h2.2c0.8,0,1.5-0.7,1.5-1.5
		C21.4,75.4,20.7,74.8,19.9,74.8z"/>
	<path class="st3" d="M15.1,39.7c-0.3-0.8-1.2-1.1-1.9-0.8l-9.9,4c-0.8,0.3-1.1,1.2-0.8,1.9c0.2,0.6,0.8,0.9,1.4,0.9
		c0.2,0,0.4,0,0.6-0.1l9.9-4C15.1,41.4,15.4,40.5,15.1,39.7z"/>
</g>
</svg>
