<?xml version="1.0" standalone="no"?>
<!DOCTYPE svg PUBLIC "-//W3C//DTD SVG 1.1//EN" "http://www.w3.org/Graphics/SVG/1.1/DTD/svg11.dtd">
<svg xmlns="http://www.w3.org/2000/svg" id="Livello_1" viewBox="0 0 100 100" width="100" height="100"><defs><style>.cls-1{fill:#fff;}.cls-2{fill:#ff4758;}.cls-3{fill:#333;}</style></defs><path class="cls-2" d="M58.26,37.9c0,.86-.34,1.64-.89,2.21h-4.64c-.55-.57-.89-1.35-.89-2.21,0-1.77,1.44-3.21,3.21-3.21s3.21,1.44,3.21,3.21Z"/><g><g><path class="cls-3" d="M69.42,59.54c-1.13,0-2.06,.93-2.06,2.06s.93,2.06,2.06,2.06,2.06-.92,2.06-2.06-.92-2.06-2.06-2.06Z"/><path class="cls-1" d="M69.42,59.44c-1.19,0-2.16,.97-2.16,2.16s.97,2.16,2.16,2.16,2.16-.97,2.16-2.16-.97-2.16-2.16-2.16Zm0,4.12c-1.08,0-1.96-.88-1.96-1.96s.88-1.96,1.96-1.96,1.96,.88,1.96,1.96-.88,1.96-1.96,1.96Z"/></g><path d="M83.27,54.74c-.41-.41-.95-.63-1.52-.63h-1.15v-9.55c0-1.41-.69-2.74-1.84-3.56l-.04-.03v-1.33c0-1.82-1.48-3.3-3.3-3.3h-.96l3.1-4.55c.98-1.43,.61-3.39-.82-4.37l-20.37-13.87c-.69-.48-1.52-.65-2.35-.49-.83,.15-1.54,.62-2.02,1.32l-17.6,25.82h-4.63l1.14-11.48c.01-.16,.12-.31,.27-.37,1.46-.55,2.73-1.57,3.56-2.89,.09-.13,.25-.21,.42-.19l5.74,.56c.5,.05,.92-.3,.96-.78,.05-.49-.3-.92-.79-.97l-5.74-.56c-.83-.08-1.62,.3-2.07,1-.63,.99-1.59,1.77-2.7,2.19-.78,.3-1.32,1-1.4,1.84l-1.16,11.65h-1.93l1.88-18.99c.03-.35,.21-.67,.48-.9,.28-.23,.63-.33,.98-.29l15.5,1.53c.24,.02,.47-.05,.66-.2,.19-.16,.3-.37,.33-.62,.05-.49-.32-.94-.81-.99l-15.51-1.53c-.84-.08-1.65,.17-2.3,.7-.65,.53-1.05,1.29-1.13,2.12l-1.52,15.31h-2.64c-1.82,0-3.3,1.48-3.3,3.3v.94l-.05,.02c-1.54,.71-2.54,2.26-2.54,3.96v34.09c0,2.4,1.95,4.35,4.35,4.35h55.8c2.4,0,4.35-1.95,4.35-4.35v-9.56h1.15c1.18,0,2.15-.96,2.15-2.15v-10.68c0-.57-.22-1.11-.63-1.52Zm-7.85-16.58c.82,0,1.49,.66,1.49,1.48v.61h-.11c-.18-.03-.37-.05-.55-.05h-4.42l1.4-2.04h2.19ZM53.5,15.4c.2-.3,.5-.5,.86-.56,.35-.07,.7,.01,.99,.21l20.36,13.87c.3,.2,.5,.5,.56,.85,.07,.35,0,.71-.2,1l-6.4,9.39-.08-.05h-2.3l2.79-4.1c.46-.67,.5-1.51,.1-2.21-.55-.99-.78-2.15-.63-3.27,.1-.79-.25-1.55-.9-2l-9.83-6.7c-.66-.45-1.5-.49-2.19-.1-.99,.54-2.16,.76-3.28,.6-.78-.11-1.57,.24-2.02,.9l-11.5,16.88h-2.94l-.04,.05-.15-.1L53.5,15.4Zm1.55,17.29c-2.87,0-5.21,2.34-5.21,5.21,0,.79,.18,1.54,.5,2.21h-8.48l10.89-15.98c.09-.1,.22-.16,.37-.14,1.48,.21,3.01-.08,4.32-.8,.13-.07,.3-.06,.44,.03l9.82,6.69c.13,.09,.21,.25,.19,.4-.2,1.48,.1,3.01,.83,4.31,.08,.14,.07,.31-.02,.44l-3.43,5.05h-5.51c.32-.67,.5-1.42,.5-2.21,0-2.87-2.34-5.21-5.21-5.21Zm3.21,5.21c0,.86-.34,1.64-.89,2.21h-4.64c-.55-.57-.89-1.35-.89-2.21,0-1.77,1.44-3.21,3.21-3.21s3.21,1.44,3.21,3.21Zm-37.75,1.74c0-.82,.66-1.48,1.48-1.48h2.46l-.2,2.04h-3.74v-.56Zm-2.6,4.92c0-1.4,1.14-2.54,2.54-2.54h55.8c1.4,0,2.54,1.14,2.54,2.54v2.86H17.91v-2.86Zm60.88,29.41H29.8c-.5,0-.9,.4-.9,.9s.4,.91,.9,.91h48.99v2.87c0,1.4-1.14,2.54-2.54,2.54H20.45c-1.4,0-2.54-1.14-2.54-2.54v-2.87h5.49c.5,0,.9-.41,.9-.91s-.4-.9-.9-.9h-5.49v-24.73h60.88v4.87h-9.6c-2.85,0-5.49,1.66-6.74,4.22h-.1s.09,.03,.09,.03l-.03,.06c-.15,.31-.27,.62-.37,.94v.04c-.23,.71-.34,1.45-.34,2.2,0,4.13,3.36,7.49,7.49,7.49h9.6v4.88Zm3.3-7.03c0,.19-.16,.34-.34,.34h-12.56c-2.08,0-4-1.14-4.99-2.97-.05-.08-.09-.17-.13-.25-.08-.17-.15-.34-.22-.51-.22-.62-.34-1.28-.34-1.95s.12-1.32,.34-1.95c.07-.17,.14-.34,.22-.51,.04-.08,.08-.16,.13-.24,.99-1.84,2.91-2.98,4.99-2.98h12.56c.18,0,.34,.16,.34,.34v10.68Z"/></g></svg>